<svg width="150" height="50" viewBox="0 0 150 50" fill="none" xmlns="http://www.w3.org/2000/svg">
  <path d="M15 10H40V15H15V10Z" fill="#4CAF50"/>
  <path d="M15 20H35V25H15V20Z" fill="#4CAF50"/>
  <path d="M15 30H30V35H15V30Z" fill="#4CAF50"/>
  <path d="M50 10H53.8C56.1333 10 58.0333 10.6333 59.5 11.9C60.9667 13.1667 61.7 14.9 61.7 17.1C61.7 19.3 60.9667 21.0333 59.5 22.3C58.0333 23.5667 56.1333 24.2 53.8 24.2H50V10ZM53.6 21.5C55.1333 21.5 56.3333 21.1 57.2 20.3C58.0667 19.5 58.5 18.4333 58.5 17.1C58.5 15.7667 58.0667 14.7 57.2 13.9C56.3333 13.1 55.1333 12.7 53.6 12.7H53.1V21.5H53.6Z" fill="#1E3A34"/>
  <path d="M65 10H68V21.5H75.4V24.2H65V10Z" fill="#1E3A34"/>
  <path d="M77.7 10H87.9V12.7H80.7V15.9H87.3V18.6H80.7V21.5H88.1V24.2H77.7V10Z" fill="#1E3A34"/>
  <path d="M92.2 24.2L96.9 10H100.7L105.4 24.2H102.3L101.2 20.9H96.4L95.3 24.2H92.2ZM97.1 18.3H100.5L98.8 13.1L97.1 18.3Z" fill="#1E3A34"/>
  <path d="M107.2 24.2V10H110.2V21.5H116.8V24.2H107.2Z" fill="#1E3A34"/>
  <path d="M119.1 24.2V10H122.1V24.2H119.1Z" fill="#1E3A34"/>
  <path d="M125.3 10H128.3V21.5H135.1V24.2H125.3V10Z" fill="#1E3A34"/>
  <path d="M140 10C141.6 10 142.933 10.5333 144 11.6C145.067 12.6667 145.6 14 145.6 15.6C145.6 16.9333 145.233 18.0667 144.5 19C143.767 19.9333 142.8 20.5667 141.6 20.9L146 24.2H142.5L138.4 21.1V24.2H135.4V10H140ZM139.6 18.8C140.533 18.8 141.3 18.5333 141.9 18C142.5 17.4667 142.8 16.7667 142.8 15.9C142.8 15.0333 142.5 14.3333 141.9 13.8C141.3 13.2667 140.533 13 139.6 13H138.4V18.8H139.6Z" fill="#1E3A34"/>
</svg> 