<svg width="200" height="200" viewBox="0 0 200 200" fill="none" xmlns="http://www.w3.org/2000/svg">
  <rect width="200" height="200" fill="#E5E7EB"/>
  <path d="M100 80C93.3726 80 88 85.3726 88 92C88 98.6274 93.3726 104 100 104C106.627 104 112 98.6274 112 92C112 85.3726 106.627 80 100 80ZM86.75 124C86.75 118.5 92 114 98.25 114H101.75C108 114 113.25 118.5 113.25 124V126H86.75V124Z" fill="#9CA3AF"/>
  <path d="M60 50H140C145.523 50 150 54.4772 150 60V140C150 145.523 145.523 150 140 150H60C54.4772 150 50 145.523 50 140V60C50 54.4772 54.4772 50 60 50Z" stroke="#9CA3AF" stroke-width="4"/>
</svg> 